<svg xmlns="http://www.w3.org/2000/svg" width="512" height="512" viewBox="0 0 512 512">
  <defs>
    <linearGradient id="bg" x1="0" y1="0" x2="1" y2="1">
      <stop offset="0" stop-color="#0A84FF"/>
      <stop offset="1" stop-color="#0062D6"/>
    </linearGradient>
  </defs>
  <rect x="16" y="16" width="480" height="480" rx="112" fill="url(#bg)"/>
  <!-- 病历文档 -->
  <rect x="150" y="120" width="212" height="272" rx="26" fill="#FFFFFF"/>
  <!-- 折角 -->
  <path d="M150 146 v-26 a26 26 0 0 1 26-26 h160 v26 h-26 a26 26 0 0 0 -26 26 v26 z" fill="#EAF3FF"/>
  <!-- 文本行 -->
  <rect x="184" y="170" width="144" height="18" rx="9" fill="#C7D6EA"/>
  <rect x="184" y="208" width="120" height="18" rx="9" fill="#D6E2F2"/>
  <rect x="184" y="246" width="144" height="18" rx="9" fill="#D6E2F2"/>
  <rect x="184" y="284" width="96" height="18" rx="9" fill="#D6E2F2"/>
  <!-- 绿色通过勾 -->
  <circle cx="346" cy="346" r="54" fill="#34C759"/>
  <path d="M324 346 l16 16 30-34" fill="none" stroke="#FFFFFF" stroke-width="13" stroke-linecap="round" stroke-linejoin="round"/>
</svg>
